<?xml version="1.0" standalone="no"?>
<!DOCTYPE svg PUBLIC "-//W3C//DTD SVG 20010904//EN"
 "http://www.w3.org/TR/2001/REC-SVG-20010904/DTD/svg10.dtd">
<svg version="1.0" xmlns="http://www.w3.org/2000/svg"
 width="512.000000pt" height="512.000000pt" viewBox="0 0 512.000000 512.000000"
 preserveAspectRatio="xMidYMid meet">
<g transform="translate(0.000000,512.000000) scale(0.100000,-0.100000)"
fill="#000000" stroke="none">
<path d="M2165 5033 c-432 -35 -836 -161 -1198 -376 -71 -42 -87 -60 -87 -99
0 -47 25 -65 157 -109 109 -36 134 -48 169 -83 40 -39 64 -93 64 -142 0 -12
-10 -53 -21 -90 -17 -54 -20 -86 -17 -147 5 -77 8 -84 121 -313 65 -129 117
-237 117 -239 0 -3 -13 -5 -28 -5 -43 0 -128 -47 -167 -93 -69 -80 -91 -186
-58 -286 23 -71 60 -111 241 -255 l157 -126 34 -100 c19 -55 58 -150 87 -211
30 -61 54 -113 54 -115 0 -1 -172 -4 -382 -6 l-383 -3 -67 -32 c-93 -44 -151
-100 -196 -191 l-37 -76 -3 -208 -4 -209 -61 -31 c-142 -71 -271 -179 -369
-308 -69 -90 -144 -246 -175 -365 -25 -95 -27 -115 -31 -392 l-4 -292 26 -26
25 -25 2431 0 2431 0 25 25 26 26 -4 292 c-4 277 -6 297 -31 392 -77 292 -276
539 -544 673 l-61 31 -4 209 -3 208 -37 76 c-45 91 -103 147 -196 191 l-67 32
-382 3 c-211 2 -383 5 -383 7 0 2 23 50 50 107 28 57 67 152 88 211 l38 108
145 115 c182 146 205 168 237 229 22 42 27 63 27 130 0 67 -5 88 -27 131 -43
83 -125 142 -220 159 l-36 7 13 31 c49 117 187 518 199 581 41 195 2 410 -106
594 -50 86 -189 221 -283 275 -88 52 -197 91 -295 107 -58 9 -889 12 -995 3z
m615 -27 c201 -2 379 -6 395 -9 40 -6 186 -56 204 -71 12 -9 13 -8 7 2 -5 8
10 2 33 -13 22 -15 41 -30 41 -32 0 -2 -5 -1 -12 3 -7 4 -8 3 -4 -5 4 -6 11
-9 16 -6 9 6 49 -19 99 -62 64 -54 82 -72 83 -80 0 -4 4 -7 10 -5 5 1 7 -1 4
-6 -3 -5 6 -20 20 -35 13 -14 24 -31 24 -37 0 -5 5 -10 12 -10 6 0 8 -3 5 -7
-4 -3 3 -18 15 -31 13 -14 17 -22 10 -18 -8 5 -3 -9 10 -30 42 -67 42 -68 29
-59 -8 4 -6 -5 4 -25 43 -82 58 -282 31 -410 -21 -100 -25 -114 -35 -135 -11
-23 -112 -303 -115 -319 -2 -6 -10 -29 -20 -51 -10 -22 -19 -50 -19 -62 -1
-11 -5 -19 -9 -16 -5 2 -8 -6 -8 -19 0 -26 17 -48 37 -48 32 0 122 -44 159
-77 61 -57 82 -108 81 -198 0 -41 -4 -75 -9 -75 -5 0 -6 -4 -3 -10 3 -5 1 -10
-5 -10 -6 0 -8 -4 -5 -10 3 -5 1 -10 -5 -10 -6 0 -8 -4 -5 -10 3 -5 2 -10 -2
-10 -5 0 -17 -14 -27 -31 -11 -19 -23 -28 -32 -25 -8 3 -13 2 -10 -3 3 -5 -11
-22 -32 -37 -20 -16 -48 -40 -61 -54 -13 -14 -18 -16 -10 -5 l14 20 -25 -20
c-13 -11 -38 -35 -56 -52 -18 -18 -37 -33 -44 -33 -6 0 -8 -5 -4 -12 4 -6 3
-8 -4 -4 -14 9 -91 -72 -98 -103 -5 -26 -38 -122 -57 -171 -6 -14 -11 -27 -12
-30 0 -3 -6 -15 -13 -27 -7 -13 -9 -23 -5 -23 4 0 3 -4 -3 -8 -6 -4 -25 -36
-42 -72 -52 -103 -72 -98 391 -102 243 -2 390 -7 395 -13 4 -5 14 -11 22 -13
20 -4 77 -43 116 -79 35 -32 90 -103 79 -103 -3 0 4 -17 16 -37 14 -22 17 -33
8 -28 -11 6 -12 5 -1 -6 9 -9 12 -66 12 -209 0 -161 3 -199 16 -218 8 -12 19
-20 24 -17 4 3 13 -2 20 -10 7 -8 16 -12 21 -9 5 3 9 0 9 -6 0 -6 4 -8 10 -5
6 3 10 1 10 -5 0 -6 4 -8 10 -5 6 3 10 1 10 -4 0 -6 6 -11 13 -11 7 0 22 -8
33 -18 11 -10 43 -35 71 -54 29 -20 49 -38 46 -42 -4 -3 -2 -6 3 -6 13 0 104
-87 98 -93 -3 -3 6 -14 20 -25 14 -11 30 -31 36 -46 5 -14 13 -26 18 -26 5 0
22 -26 38 -57 16 -32 35 -66 43 -75 8 -10 11 -18 8 -18 -3 0 4 -21 15 -47 12
-27 25 -64 29 -83 38 -183 39 -199 39 -442 0 -135 -3 -253 -6 -262 -3 -9 -12
-16 -20 -16 -8 0 -14 -3 -14 -7 0 -5 -1088 -7 -2417 -6 -2258 3 -2419 4 -2431
20 -19 26 -16 483 4 593 9 47 17 95 19 107 4 29 35 114 48 131 5 6 6 12 2 12
-3 0 3 12 14 26 11 15 19 30 16 34 -3 4 2 13 10 20 8 7 15 18 15 24 0 7 8 21
18 32 9 10 30 37 47 59 16 22 36 46 45 53 12 11 13 12 0 6 -21 -11 56 64 111
109 25 20 50 37 55 37 5 0 15 9 21 19 7 10 35 29 62 42 28 12 51 25 51 29 0 3
10 6 22 7 13 1 33 14 46 28 22 26 22 33 22 221 -1 148 2 199 12 212 11 13 11
14 -1 7 -9 -5 -4 8 9 31 14 21 23 40 20 41 -8 3 71 103 82 103 5 0 6 6 2 13
-4 6 -4 9 1 5 4 -4 22 3 39 16 33 25 106 59 106 49 0 -3 6 -1 13 5 7 6 148 10
380 11 203 1 374 4 382 7 7 3 16 12 19 20 6 15 -49 134 -68 146 -6 4 -7 8 -2
8 4 0 1 11 -8 25 -9 13 -18 32 -19 42 -2 10 -8 29 -14 43 -5 14 -18 50 -28 80
-24 75 -45 120 -53 120 -4 0 -21 14 -39 30 -18 17 -34 30 -37 30 -3 0 -20 16
-39 35 -19 19 -40 35 -47 35 -7 0 -36 21 -64 46 -28 26 -63 58 -78 71 -31 28
-73 83 -62 83 3 0 0 7 -7 16 -22 27 -21 148 2 201 18 43 75 106 115 129 16 10
72 26 95 28 3 1 14 9 23 19 18 17 14 27 -99 253 -113 226 -126 262 -128 349 0
37 11 92 23 116 16 30 12 137 -7 172 -9 18 -17 36 -18 40 0 9 -86 86 -97 88
-15 3 -28 6 -30 9 -2 1 -10 3 -18 5 -8 2 -46 16 -83 30 -38 14 -72 23 -77 20
-4 -3 -13 2 -20 10 -7 8 -9 15 -4 15 5 0 1 5 -8 11 -13 7 -15 15 -9 32 5 12
12 22 17 21 5 0 18 8 28 18 11 10 24 18 28 18 5 0 6 4 3 10 -3 6 1 7 9 4 9 -4
18 1 22 10 3 9 10 13 15 10 5 -3 24 6 42 20 19 15 39 26 44 26 19 0 63 27 56
34 -4 4 1 4 11 0 15 -6 17 -4 11 6 -5 9 -4 11 4 6 6 -4 24 0 39 10 15 10 31
17 35 16 4 -1 28 9 53 23 24 14 56 25 70 25 16 0 23 4 18 11 -4 7 -1 10 7 7
14 -5 116 28 155 50 12 6 24 9 27 6 2 -3 22 2 42 10 20 9 41 13 46 10 5 -3 9
0 9 6 0 6 4 9 8 6 5 -3 64 7 133 21 68 15 136 27 152 27 15 1 27 3 27 6 0 7
68 10 183 10 44 0 85 3 92 8 7 4 37 6 67 4 29 -1 217 -4 418 -6z"/>
<path d="M2080 4890 c-30 -4 -70 -10 -88 -13 -18 -4 -52 -9 -75 -12 -69 -10
-218 -45 -287 -67 -36 -12 -73 -21 -82 -20 -10 0 -18 -3 -18 -9 0 -5 -3 -8 -7
-7 -5 0 -15 -1 -23 -5 -8 -3 -43 -16 -78 -28 -34 -12 -65 -26 -68 -30 -3 -5
-16 -9 -29 -9 -13 0 -25 -3 -27 -7 -1 -5 -34 -24 -71 -43 -38 -19 -73 -40 -78
-46 -16 -20 2 -43 42 -55 21 -7 46 -20 55 -31 10 -10 21 -18 25 -18 5 0 27
-19 51 -42 24 -23 37 -38 29 -33 -8 4 -3 -7 12 -27 15 -19 24 -37 21 -41 -3
-3 -2 -12 2 -19 22 -35 19 -169 -5 -239 -11 -34 -17 -72 -14 -99 4 -51 21
-100 34 -100 5 0 9 -4 9 -10 0 -24 101 -216 120 -228 17 -10 26 -10 53 4 17 9
35 21 39 27 3 6 15 12 24 13 10 2 24 10 30 18 6 9 22 22 35 29 66 37 89 53 89
64 0 7 3 12 8 12 18 -3 32 2 48 18 9 10 24 18 33 20 8 1 21 9 27 17 6 9 22 22
35 29 66 37 89 53 89 64 0 7 3 12 8 12 16 -3 31 2 44 14 29 27 78 57 92 57 8
0 18 5 21 10 3 6 15 10 26 10 10 0 19 5 19 10 0 6 6 10 13 9 15 -3 68 11 82
21 14 10 115 23 205 25 90 2 170 14 170 26 0 4 8 7 18 7 27 -2 180 75 222 112
77 67 124 105 131 105 5 0 16 10 24 23 9 12 23 22 31 22 8 0 14 4 14 9 0 16
38 19 59 4 12 -8 21 -11 21 -6 0 9 55 -69 55 -79 0 -3 4 -10 9 -15 5 -5 6 -2
1 6 -5 9 -4 12 3 7 6 -4 9 -13 5 -21 -3 -8 0 -15 6 -15 6 0 18 -15 27 -32 9
-18 20 -35 23 -38 9 -7 86 -129 103 -165 9 -16 25 -48 36 -70 21 -41 44 -114
48 -152 3 -27 32 -83 42 -83 11 0 42 66 42 88 0 9 7 26 15 36 8 11 15 30 15
42 0 13 4 25 9 29 18 11 41 145 41 239 0 88 -19 195 -42 239 -5 10 -11 28 -13
39 -8 39 -100 166 -157 216 -9 9 -14 20 -11 25 3 6 1 7 -5 3 -7 -4 -22 2 -34
13 -12 12 -26 21 -32 21 -5 0 -6 3 -3 7 7 6 -66 53 -88 56 -5 1 -12 5 -15 9
-3 4 -15 9 -25 11 -11 1 -25 6 -31 10 -6 3 -38 13 -70 22 -49 13 -140 15 -559
14 -275 -1 -525 -5 -555 -9z m1094 -25 c254 -54 458 -259 512 -516 28 -129 16
-242 -42 -414 l-49 -145 -22 93 c-13 50 -40 128 -61 172 -47 96 -254 410 -277
419 -41 15 -66 3 -176 -85 -222 -179 -301 -213 -519 -229 -178 -13 -278 -39
-389 -101 -66 -38 -594 -389 -602 -400 -3 -5 -40 62 -82 149 -84 170 -92 207
-63 290 40 111 25 232 -39 329 -39 59 -111 117 -167 135 -21 6 -38 14 -38 18
0 4 46 29 103 55 284 132 555 204 897 238 19 2 240 4 490 5 366 1 469 -1 524
-13z m-1264 -989 c0 -2 -7 -7 -16 -10 -8 -3 -12 -2 -9 4 6 10 25 14 25 6z
m-240 -160 c0 -2 -7 -7 -16 -10 -8 -3 -12 -2 -9 4 6 10 25 14 25 6z"/>
<path d="M3190 4830 c-9 -6 -10 -10 -3 -10 6 0 15 5 18 10 8 12 4 12 -15 0z"/>
<path d="M3445 4671 c-3 -5 -2 -12 3 -15 5 -3 9 1 9 9 0 17 -3 19 -12 6z"/>
<path d="M1262 4591 c-11 -7 -11 -9 0 -14 9 -3 15 1 15 9 0 8 -1 14 -1 14 -1
0 -7 -4 -14 -9z"/>
<path d="M3530 4586 c0 -2 8 -10 18 -17 15 -13 16 -12 3 4 -13 16 -21 21 -21
13z"/>
<path d="M1324 4535 c-19 -15 -19 -15 0 -8 15 5 18 3 13 -10 -9 -23 0 -21 13
2 13 26 -2 34 -26 16z"/>
<path d="M1403 4452 c-1 -22 0 -24 9 -8 6 10 6 22 2 26 -5 5 -10 -3 -11 -18z"/>
<path d="M3075 4470 c-4 -6 -10 -8 -15 -5 -5 3 -11 1 -14 -4 -12 -19 12 -20
29 -1 10 11 15 20 12 20 -3 0 -9 -5 -12 -10z"/>
<path d="M3607 4399 c4 -13 8 -18 11 -10 2 7 -1 18 -6 23 -8 8 -9 4 -5 -13z"/>
<path d="M2964 4358 c0 -10 1 -18 3 -18 1 0 7 8 12 18 7 13 6 19 -2 19 -7 0
-13 -9 -13 -19z"/>
<path d="M2225 4150 c-16 -7 -17 -9 -3 -9 9 -1 20 4 23 9 7 11 7 11 -20 0z"/>
<path d="M3554 4069 c-4 -7 -3 -9 4 -5 5 3 13 0 15 -6 4 -9 6 -10 6 -1 1 17
-16 25 -25 12z"/>
<path d="M1487 3860 c3 -11 9 -22 13 -25 5 -3 6 4 3 15 -3 11 -9 22 -13 25 -5
3 -6 -4 -3 -15z"/>
<path d="M3124 4271 c-21 -15 -47 -38 -58 -49 -10 -12 -23 -19 -29 -15 -6 3
-7 1 -3 -5 4 -7 1 -12 -8 -12 -9 0 -16 -3 -16 -8 0 -4 -17 -16 -37 -27 -21
-10 -45 -24 -53 -30 -15 -12 -149 -63 -185 -71 -73 -17 -114 -21 -188 -23 -46
-1 -110 -9 -143 -17 -32 -8 -64 -16 -70 -17 -7 -2 -20 -9 -30 -17 -11 -9 -15
-10 -10 -3 10 18 -21 5 -60 -24 -17 -13 -36 -23 -42 -23 -7 0 -12 -4 -12 -10
0 -5 -6 -10 -14 -10 -7 0 -19 -7 -26 -15 -7 -9 -15 -13 -17 -11 -3 3 -10 1
-17 -4 -60 -49 -75 -60 -86 -60 -6 0 -8 -5 -4 -12 5 -8 2 -9 -10 -5 -10 4 -15
3 -11 -3 3 -6 -1 -10 -9 -10 -8 0 -22 -7 -30 -16 -9 -8 -16 -12 -16 -8 0 4
-13 -5 -30 -21 -17 -16 -30 -25 -30 -21 0 4 -6 2 -12 -3 -57 -47 -76 -60 -81
-55 -3 3 -10 -4 -17 -15 -6 -12 -15 -21 -21 -21 -11 0 -70 -40 -81 -55 -13
-18 -9 -142 5 -153 9 -8 136 -12 384 -14 204 -2 375 -6 379 -10 4 -4 9 -31 12
-60 7 -78 20 -88 112 -88 92 0 110 13 110 81 0 79 -25 74 392 77 335 2 374 4
391 20 18 16 19 29 14 192 -3 119 -10 193 -21 230 -9 30 -18 64 -21 75 -8 31
-57 127 -83 163 -13 17 -21 32 -17 32 3 0 0 6 -7 14 -32 34 -48 57 -48 71 0 9
-7 18 -15 21 -8 4 -15 12 -15 18 0 19 -39 56 -59 56 -10 0 -36 -13 -57 -29z
m148 -124 c140 -211 168 -305 168 -557 l0 -150 -375 0 -376 0 -24 -25 c-21
-20 -25 -34 -25 -80 l0 -55 -80 0 -80 0 0 55 c0 46 -4 60 -25 80 l-24 25 -376
0 -375 0 0 58 0 59 263 175 c144 96 285 187 312 200 81 41 152 58 287 68 69 5
157 16 195 25 102 24 238 94 344 179 52 41 96 75 99 75 3 0 44 -59 92 -132z"/>
<path d="M3101 4177 c-8 -10 -7 -14 2 -14 8 0 14 6 14 14 0 7 -1 13 -2 13 -2
0 -8 -6 -14 -13z"/>
<path d="M3231 4104 c0 -11 3 -14 6 -6 3 7 2 16 -1 19 -3 4 -6 -2 -5 -13z"/>
<path d="M2940 4021 c0 -6 4 -13 10 -16 6 -3 7 1 4 9 -7 18 -14 21 -14 7z"/>
<path d="M2065 3780 c-3 -6 1 -7 9 -4 18 7 21 14 7 14 -6 0 -13 -4 -16 -10z"/>
<path d="M1980 3711 c0 -6 4 -12 8 -15 5 -3 9 1 9 9 0 8 -4 15 -9 15 -4 0 -8
-4 -8 -9z"/>
<path d="M1736 3541 c-4 -5 -2 -12 3 -15 5 -4 12 -2 15 3 4 5 2 12 -3 15 -5 4
-12 2 -15 -3z"/>
<path d="M1435 3296 c-73 -33 -108 -108 -91 -198 5 -28 56 -104 56 -85 0 4 9
-2 20 -13 11 -11 25 -20 31 -20 5 0 7 -4 4 -10 -3 -5 -2 -10 3 -10 5 0 22 -11
38 -25 35 -30 70 -33 79 -6 3 10 -1 65 -10 122 -8 56 -15 130 -15 164 0 89
-37 116 -115 81z m89 -108 c8 -104 23 -223 32 -252 7 -21 -91 51 -152 111 -86
85 -31 230 87 232 26 1 26 0 33 -91z"/>
<path d="M1423 3205 c-3 -9 -3 -18 -1 -21 3 -3 8 4 11 16 6 23 -1 27 -10 5z"/>
<path d="M1672 3298 c-8 -8 -12 -44 -12 -97 1 -96 10 -173 37 -311 4 -19 8
-42 9 -50 6 -43 15 -83 24 -98 5 -9 25 -66 45 -127 20 -60 44 -123 53 -140 9
-16 17 -33 18 -37 1 -5 3 -10 4 -13 1 -3 3 -8 4 -12 4 -18 59 -119 74 -135 8
-10 11 -18 7 -18 -5 0 2 -11 15 -25 l23 -25 588 0 c645 0 591 -5 630 63 19 32
93 183 108 222 5 11 18 43 29 70 11 28 28 77 38 110 10 33 22 65 26 71 5 6 10
31 13 55 2 24 9 62 14 84 25 107 33 160 38 272 7 153 7 153 -97 153 -110 0
-111 -1 -109 -179 1 -126 -2 -146 -20 -182 -33 -62 -88 -106 -143 -114 -40 -6
-213 -6 -248 -1 -103 16 -176 109 -172 220 3 84 -10 96 -108 96 -98 0 -110
-11 -109 -98 1 -71 -23 -128 -73 -170 -56 -49 -70 -52 -218 -52 -145 0 -175 8
-226 59 -59 58 -67 90 -65 244 3 175 1 177 -109 177 -46 0 -81 -5 -88 -12z
m168 -154 c0 -170 9 -204 75 -269 63 -64 100 -75 247 -75 146 0 192 15 251 80
49 55 67 103 67 184 l0 56 80 0 80 0 0 -56 c0 -87 18 -133 75 -189 63 -64 100
-75 247 -75 146 0 192 15 251 80 57 64 67 101 67 264 l0 136 81 0 81 0 -7 -92
c-20 -291 -91 -549 -222 -815 l-66 -133 -587 0 -587 0 -66 133 c-131 266 -202
522 -222 810 l-7 97 81 0 81 0 0 -136z"/>
<path d="M3283 2645 c0 -8 4 -12 9 -9 5 3 6 10 3 15 -9 13 -12 11 -12 -6z"/>
<path d="M3130 2391 c0 -6 4 -13 10 -16 6 -3 7 1 4 9 -7 18 -14 21 -14 7z"/>
<path d="M1987 3292 c-14 -15 -17 -42 -17 -147 0 -112 3 -132 21 -161 11 -19
29 -39 39 -44 10 -6 70 -10 133 -10 107 0 116 1 141 25 39 37 46 65 46 199 0
163 9 156 -192 156 -137 0 -157 -2 -171 -18z m333 -147 c0 -131 -1 -137 -25
-160 -23 -24 -31 -25 -135 -25 -104 0 -112 1 -135 25 -24 23 -25 29 -25 160
l0 135 160 0 160 0 0 -135z"/>
<path d="M2049 3023 c-12 -16 -12 -17 2 -6 9 7 20 9 24 5 5 -4 5 -1 1 6 -9 16
-11 15 -27 -5z"/>
<path d="M2245 3030 c-3 -5 -5 -10 -3 -11 33 -8 38 -7 27 7 -14 17 -16 17 -24
4z"/>
<path d="M2787 3292 c-14 -15 -17 -42 -17 -147 0 -112 3 -132 21 -161 11 -19
29 -39 39 -44 10 -6 70 -10 133 -10 107 0 116 1 141 25 39 37 46 65 46 199 0
163 9 156 -192 156 -137 0 -157 -2 -171 -18z m333 -147 c0 -131 -1 -137 -25
-160 -23 -24 -31 -25 -135 -25 -104 0 -112 1 -135 25 -24 23 -25 29 -25 160
l0 135 160 0 160 0 0 -135z"/>
<path d="M2849 3023 c-12 -16 -12 -17 2 -6 9 7 20 9 24 5 5 -4 5 -1 1 6 -9 16
-11 15 -27 -5z"/>
<path d="M3045 3030 c-3 -5 -5 -10 -3 -11 33 -8 38 -7 27 7 -14 17 -16 17 -24
4z"/>
<path d="M3587 3289 c-9 -14 -17 -62 -21 -114 -4 -49 -8 -103 -11 -120 -2 -16
-6 -49 -8 -71 -3 -23 -8 -47 -12 -54 -10 -16 0 -23 37 -24 22 -1 33 4 36 16 2
10 8 16 12 13 5 -3 17 6 28 20 11 14 25 25 30 25 6 0 18 10 26 22 9 12 16 19
16 14 0 -14 41 36 51 62 20 51 3 162 -24 162 -5 0 -7 7 -3 15 3 8 2 14 -2 13
-4 -2 -19 6 -34 16 -15 10 -45 20 -67 23 -33 5 -41 2 -54 -18z m129 -50 c64
-62 56 -151 -21 -213 -25 -20 -66 -53 -91 -73 -36 -29 -45 -33 -41 -18 10 30
24 147 32 254 l7 93 40 -5 c27 -4 51 -16 74 -38z"/>
<path d="M1046 2100 c-15 -5 -36 -16 -45 -24 -10 -9 -20 -14 -23 -11 -3 3 -26
-17 -52 -46 -79 -88 -76 -46 -76 -964 0 -774 1 -813 18 -828 17 -16 149 -17
1694 -17 1620 0 1675 1 1692 19 15 17 16 82 14 847 -3 916 1 859 -68 938 -18
20 -54 49 -79 64 l-46 27 -1500 2 c-825 1 -1513 -2 -1529 -7z m3037 -36 c57
-19 128 -93 145 -152 9 -29 12 -254 12 -856 l0 -816 -1680 0 -1680 0 0 816 c0
612 3 827 12 858 15 51 99 137 148 153 25 8 467 11 1516 12 1329 1 1485 -1
1527 -15z"/>
<path d="M1005 2021 c-3 -5 -2 -12 3 -15 5 -3 9 1 9 9 0 17 -3 19 -12 6z"/>
<path d="M1970 1990 c-12 -7 -10 -9 7 -7 12 0 19 5 17 9 -6 10 -6 10 -24 -2z"/>
<path d="M2703 1985 c0 -8 4 -12 9 -9 5 3 6 10 3 15 -9 13 -12 11 -12 -6z"/>
<path d="M3176 1988 c3 -5 10 -6 15 -3 13 9 11 12 -6 12 -8 0 -12 -4 -9 -9z"/>
<path d="M1852 1807 c-154 -156 -172 -177 -172 -207 0 -30 18 -51 172 -207
l172 -173 58 57 58 58 -132 132 -133 133 133 133 132 132 -58 58 -58 57 -172
-173z m180 120 c7 -7 27 -23 43 -36 17 -12 29 -24 27 -26 -55 -65 -224 -226
-234 -223 -9 4 -13 -3 -12 -23 2 -47 3 -51 16 -43 6 4 8 3 5 -3 -4 -6 2 -22
14 -34 11 -13 17 -17 13 -9 -5 10 -1 9 14 -4 12 -10 19 -23 16 -27 -3 -5 -1
-9 5 -9 14 0 77 -62 73 -72 -1 -4 3 -8 9 -8 13 0 69 -61 69 -76 0 -7 -16 -26
-36 -43 -37 -33 -51 -30 -67 12 -3 9 -13 17 -21 17 -8 0 -18 5 -22 12 -5 7 -2
9 7 4 8 -4 5 0 -5 8 -11 9 -23 16 -28 16 -4 0 -8 7 -8 15 0 9 -11 20 -25 25
-14 5 -25 12 -25 15 0 4 6 3 13 0 6 -4 3 1 -7 9 -11 9 -23 16 -28 16 -4 0 -8
7 -8 15 0 9 -11 20 -25 25 -14 5 -25 12 -25 15 0 4 6 3 13 0 6 -3 2 1 -10 10
-51 38 -64 54 -65 81 -3 50 6 65 65 109 12 9 16 13 8 9 -9 -5 -12 -3 -7 4 4 7
13 12 21 12 7 0 17 9 20 20 3 11 10 20 14 20 4 0 16 7 27 16 10 8 13 12 5 8
-9 -5 -12 -3 -7 4 4 7 13 12 21 12 7 0 17 9 20 20 3 11 10 20 14 20 4 0 16 7
27 16 10 8 13 12 5 8 -9 -5 -12 -3 -7 4 4 7 13 12 21 12 7 0 17 9 20 20 3 11
13 20 21 20 8 0 12 5 9 10 -9 14 1 12 17 -3z"/>
<path d="M3038 1923 l-58 -58 132 -132 133 -133 -133 -133 -132 -132 58 -58
58 -57 172 173 c155 156 172 177 172 207 0 30 -17 51 -172 207 l-173 173 -57
-57z m68 8 c-3 -5 4 -11 15 -14 12 -3 18 -10 14 -16 -3 -6 -2 -11 4 -11 14 0
77 -62 74 -72 -2 -4 1 -8 7 -8 13 0 76 -62 73 -72 -2 -4 1 -8 7 -8 20 0 98
-88 107 -121 l9 -34 -157 -157 -158 -157 -38 32 c-36 31 -52 57 -36 57 5 0 19
10 33 21 14 11 19 17 11 13 -9 -5 -12 -3 -7 4 4 7 13 12 21 12 7 0 17 9 20 20
3 11 10 20 14 20 4 0 16 7 27 16 10 8 13 12 5 8 -9 -5 -12 -3 -7 4 4 7 14 12
22 12 8 0 14 4 14 10 0 5 16 26 36 47 55 57 57 71 14 112 -20 20 -40 44 -43
54 -4 9 -13 17 -21 17 -8 0 -18 5 -22 12 -5 7 -2 9 7 4 8 -4 5 0 -5 8 -11 9
-23 16 -28 16 -4 0 -8 7 -8 15 0 9 -11 20 -25 25 -14 5 -25 12 -25 15 0 4 6 3
13 0 6 -4 1 3 -13 14 -14 11 -28 21 -32 21 -16 0 -2 24 32 56 33 31 58 45 46
25z"/>
<path d="M945 1961 c-3 -5 -2 -12 3 -15 5 -3 9 1 9 9 0 17 -3 19 -12 6z"/>
<path d="M2496 1648 l-240 -320 25 -19 c13 -10 42 -32 64 -48 l41 -29 149 200
c83 111 190 255 239 321 l89 119 -24 19 c-13 10 -42 32 -64 47 l-40 29 -239
-319z m290 246 c17 -13 35 -20 39 -16 31 29 -44 -79 -123 -177 -40 -51 -54
-71 -47 -71 3 0 -5 -10 -18 -22 -14 -13 -24 -25 -24 -28 1 -3 -6 -14 -15 -25
-9 -11 -33 -40 -53 -64 -20 -24 -41 -53 -47 -64 -6 -12 -19 -30 -30 -41 -27
-29 -58 -72 -54 -77 1 -2 -5 -11 -15 -20 -16 -16 -20 -15 -58 8 -23 13 -41 29
-41 34 0 20 21 49 31 44 5 -4 8 -3 7 2 -2 7 28 61 42 73 24 22 68 89 62 94 -4
4 0 6 8 4 8 -2 15 4 15 12 0 8 10 23 23 34 13 10 21 21 18 24 -3 3 6 16 20 29
14 12 22 23 18 23 -3 0 -1 7 6 15 7 8 16 12 21 9 5 -3 8 -2 7 3 -2 7 28 60 42
73 25 24 91 112 87 116 -8 9 27 41 38 36 6 -3 24 -15 41 -28z"/>
<path d="M3160 1966 c0 -2 8 -10 18 -17 15 -13 16 -12 3 4 -13 16 -21 21 -21
13z"/>
<path d="M4163 1955 c0 -8 4 -12 9 -9 5 3 6 10 3 15 -9 13 -12 11 -12 -6z"/>
<path d="M1885 1910 c-3 -5 -1 -10 4 -10 6 0 11 5 11 10 0 6 -2 10 -4 10 -3 0
-8 -4 -11 -10z"/>
<path d="M3256 1908 c3 -5 10 -6 15 -3 13 9 11 12 -6 12 -8 0 -12 -4 -9 -9z"/>
<path d="M3240 1893 c0 -6 8 -17 18 -24 16 -13 16 -13 2 6 -8 11 -16 22 -17
24 -2 2 -3 0 -3 -6z"/>
<path d="M1859 1873 c-13 -16 -12 -17 4 -4 9 7 17 15 17 17 0 8 -8 3 -21 -13z"/>
<path d="M1810 1830 c-12 -7 -10 -9 7 -7 12 0 19 5 17 9 -6 10 -6 10 -24 -2z"/>
<path d="M2581 1824 c0 -11 3 -14 6 -6 3 7 2 16 -1 19 -3 4 -6 -2 -5 -13z"/>
<path d="M3336 1828 c3 -5 10 -6 15 -3 13 9 11 12 -6 12 -8 0 -12 -4 -9 -9z"/>
<path d="M2122 1795 c-12 -14 -18 -25 -13 -25 5 0 16 11 25 25 9 14 15 25 13
25 -2 0 -13 -11 -25 -25z"/>
<path d="M3320 1806 c0 -2 8 -10 18 -17 15 -13 16 -12 3 4 -13 16 -21 21 -21
13z"/>
<path d="M2850 1786 c7 -7 13 -7 20 0 6 6 3 10 -10 10 -13 0 -16 -4 -10 -10z"/>
<path d="M2136 1772 c-3 -5 1 -9 9 -9 8 0 12 4 9 9 -3 4 -7 8 -9 8 -2 0 -6 -4
-9 -8z"/>
<path d="M3000 1775 c0 -7 30 -13 34 -7 3 4 -4 9 -15 9 -10 1 -19 0 -19 -2z"/>
<path d="M1730 1750 c-12 -7 -10 -9 7 -7 12 0 19 5 17 9 -6 10 -6 10 -24 -2z"/>
<path d="M3416 1748 c3 -5 10 -6 15 -3 13 9 11 12 -6 12 -8 0 -12 -4 -9 -9z"/>
<path d="M2483 1735 c0 -8 4 -12 9 -9 5 3 6 10 3 15 -9 13 -12 11 -12 -6z"/>
<path d="M2042 1715 c-12 -14 -18 -25 -13 -25 5 0 16 11 25 25 9 14 15 25 13
25 -2 0 -13 -11 -25 -25z"/>
<path d="M3400 1726 c0 -2 8 -10 18 -17 15 -13 16 -12 3 4 -13 16 -21 21 -21
13z"/>
<path d="M2056 1692 c-3 -5 1 -9 9 -9 8 0 12 4 9 9 -3 4 -7 8 -9 8 -2 0 -6 -4
-9 -8z"/>
<path d="M3080 1695 c0 -7 30 -13 34 -7 3 4 -4 9 -15 9 -10 1 -19 0 -19 -2z"/>
<path d="M2463 1665 c0 -8 4 -12 9 -9 5 3 6 10 3 15 -9 13 -12 11 -12 -6z"/>
<path d="M1980 1651 c0 -6 4 -12 8 -15 5 -3 9 1 9 9 0 8 -4 15 -9 15 -4 0 -8
-4 -8 -9z"/>
<path d="M3170 1610 c13 -9 13 -11 0 -20 -9 -6 -11 -10 -3 -10 7 0 17 8 22 18
8 14 5 18 -12 19 -17 2 -19 0 -7 -7z"/>
<path d="M1976 1588 c3 -5 10 -6 15 -3 13 9 11 12 -6 12 -8 0 -12 -4 -9 -9z"/>
<path d="M1962 1565 c12 -14 23 -25 25 -25 2 0 -4 11 -13 25 -9 14 -20 25 -25
25 -5 0 1 -11 13 -25z"/>
<path d="M2651 1546 c-9 -11 -9 -16 1 -22 7 -4 10 -4 6 1 -4 4 -3 14 3 22 6 7
9 13 6 13 -2 0 -10 -6 -16 -14z"/>
<path d="M2056 1508 c3 -5 10 -6 15 -3 13 9 11 12 -6 12 -8 0 -12 -4 -9 -9z"/>
<path d="M2341 1504 c0 -11 3 -14 6 -6 3 7 2 16 -1 19 -3 4 -6 -2 -5 -13z"/>
<path d="M3090 1510 c-12 -7 -10 -9 7 -7 12 0 19 5 17 9 -6 10 -6 10 -24 -2z"/>
<path d="M3402 1475 c-12 -14 -18 -25 -13 -25 5 0 16 11 25 25 9 14 15 25 13
25 -2 0 -13 -11 -25 -25z"/>
<path d="M2040 1486 c0 -2 8 -10 18 -17 15 -13 16 -12 3 4 -13 16 -21 21 -21
13z"/>
<path d="M2610 1466 c7 -7 13 -7 20 0 6 6 3 10 -10 10 -13 0 -16 -4 -10 -10z"/>
<path d="M1720 1455 c0 -7 30 -13 34 -7 3 4 -4 9 -15 9 -10 1 -19 0 -19 -2z"/>
<path d="M3416 1452 c-3 -5 1 -9 9 -9 8 0 12 4 9 9 -3 4 -7 8 -9 8 -2 0 -6 -4
-9 -8z"/>
<path d="M2136 1428 c3 -5 10 -6 15 -3 13 9 11 12 -6 12 -8 0 -12 -4 -9 -9z"/>
<path d="M3010 1430 c-12 -7 -10 -9 7 -7 12 0 19 5 17 9 -6 10 -6 10 -24 -2z"/>
<path d="M2243 1415 c0 -8 4 -12 9 -9 5 3 6 10 3 15 -9 13 -12 11 -12 -6z"/>
<path d="M3322 1395 c-12 -14 -18 -25 -13 -25 5 0 16 11 25 25 9 14 15 25 13
25 -2 0 -13 -11 -25 -25z"/>
<path d="M2120 1406 c0 -2 8 -10 18 -17 15 -13 16 -12 3 4 -13 16 -21 21 -21
13z"/>
<path d="M1800 1375 c0 -7 30 -13 34 -7 3 4 -4 9 -15 9 -10 1 -19 0 -19 -2z"/>
<path d="M3336 1372 c-3 -5 1 -9 9 -9 8 0 12 4 9 9 -3 4 -7 8 -9 8 -2 0 -6 -4
-9 -8z"/>
<path d="M3261 1330 c14 -31 19 -36 19 -24 0 6 -7 19 -16 30 -14 18 -14 18 -3
-6z"/>
<path d="M1847 1325 c-8 -19 12 -30 26 -16 9 9 8 11 -6 5 -13 -5 -16 -2 -11
10 3 9 4 16 1 16 -3 0 -7 -7 -10 -15z"/>
<path d="M3162 1235 c-12 -14 -18 -25 -13 -25 5 0 16 11 25 25 9 14 15 25 13
25 -2 0 -13 -11 -25 -25z"/>
<path d="M2411 1226 c-9 -11 -9 -16 1 -22 7 -4 10 -4 6 1 -4 4 -3 14 3 22 6 7
9 13 6 13 -2 0 -10 -6 -16 -14z"/>
<path d="M1960 1215 c0 -7 30 -13 34 -7 3 4 -4 9 -15 9 -10 1 -19 0 -19 -2z"/>
<path d="M3176 1212 c-3 -5 1 -9 9 -9 8 0 12 4 9 9 -3 4 -7 8 -9 8 -2 0 -6 -4
-9 -8z"/>
<path d="M2460 1104 c-227 -82 -293 -362 -125 -529 66 -66 125 -90 225 -89
100 0 156 22 223 88 68 65 92 125 92 226 0 100 -24 160 -90 225 -82 82 -222
116 -325 79z m198 -28 c17 -4 32 -12 32 -17 0 -5 9 -9 20 -9 11 0 23 -7 26
-15 3 -8 13 -17 23 -20 9 -3 25 -20 36 -37 10 -18 21 -35 24 -38 14 -12 32
-84 33 -130 0 -50 -21 -150 -32 -150 -3 0 -14 -16 -24 -35 -11 -19 -23 -35
-27 -35 -4 0 -14 -6 -22 -14 -7 -8 -36 -25 -63 -39 -69 -36 -176 -36 -251 0
-29 13 -53 29 -53 35 0 6 -3 8 -6 5 -10 -10 -43 31 -75 96 -25 48 -30 71 -30
127 0 61 4 78 36 139 21 39 46 73 56 76 10 4 19 11 19 16 0 5 6 9 14 9 7 0 19
7 26 15 7 8 16 13 20 10 4 -3 13 1 19 9 12 14 137 15 199 2z"/>
<path d="M2485 971 c-45 -20 -92 -70 -101 -107 -4 -14 -4 -51 -2 -83 3 -45 11
-68 32 -96 15 -20 30 -34 33 -31 3 3 13 -4 22 -15 19 -23 82 -35 135 -25 40 8
110 69 126 111 13 35 13 116 -1 152 -15 40 -48 73 -94 94 -51 24 -99 24 -150
0z m138 -25 c103 -43 128 -177 48 -257 -65 -65 -157 -65 -222 0 -124 123 13
325 174 257z"/>
<path d="M2605 900 c-3 -6 1 -7 9 -4 18 7 21 14 7 14 -6 0 -13 -4 -16 -10z"/>
<path d="M2607 699 c7 -7 15 -10 18 -7 3 3 -2 9 -12 12 -14 6 -15 5 -6 -5z"/>
<path d="M2351 1097 c-8 -10 -7 -14 2 -14 8 0 14 6 14 14 0 7 -1 13 -2 13 -2
0 -8 -6 -14 -13z"/>
<path d="M2835 1010 c-3 -5 -5 -10 -3 -11 33 -8 38 -7 27 7 -14 17 -16 17 -24
4z"/>
<path d="M2847 599 c7 -9 11 -18 8 -21 -3 -2 1 -5 8 -5 8 0 14 6 14 14 0 7 -3
11 -5 8 -3 -3 -12 1 -21 8 -14 10 -14 10 -4 -4z"/>
<path d="M4391 1346 c-15 -18 -26 -596 -16 -879 6 -179 10 -231 22 -242 12
-12 56 -15 243 -15 200 0 231 2 245 17 15 14 16 42 13 252 -4 224 -6 240 -32
321 -15 47 -37 102 -48 123 -10 20 -16 37 -12 37 4 0 0 8 -8 18 -9 9 -24 33
-33 52 -32 62 -162 207 -231 255 -83 58 -129 78 -143 61z m92 -52 c145 -94
287 -272 342 -430 45 -130 55 -209 55 -424 l0 -200 -240 0 -240 0 0 550 c0
303 3 550 6 550 3 0 38 -21 77 -46z"/>
<path d="M4494 1224 c-18 -14 -18 -15 4 -4 12 6 22 13 22 15 0 8 -5 6 -26 -11z"/>
<path d="M666 1335 c-3 -9 -10 -14 -14 -11 -5 3 -25 -9 -45 -25 -20 -17 -37
-28 -37 -25 0 10 -120 -115 -171 -179 -27 -33 -49 -65 -49 -71 0 -6 -9 -21
-20 -34 -11 -13 -20 -31 -20 -42 0 -10 -5 -18 -12 -18 -6 0 -8 -3 -5 -7 4 -3
2 -12 -4 -20 -6 -7 -9 -13 -5 -13 4 0 0 -12 -8 -27 -39 -77 -50 -154 -54 -389
-3 -205 -2 -233 13 -247 14 -15 46 -17 245 -17 195 0 231 2 244 16 14 14 16
76 14 567 l-3 552 -31 3 c-22 2 -33 -2 -38 -13z m54 -545 l0 -550 -240 0 -240
0 0 200 c0 215 10 294 55 424 54 156 187 325 335 425 41 28 78 51 83 51 4 0 7
-247 7 -550z"/>
<path d="M373 955 c-3 -9 -3 -18 -1 -21 3 -3 8 4 11 16 6 23 -1 27 -10 5z"/>
<path d="M3816 3427 c3 -10 9 -15 12 -12 3 3 0 11 -7 18 -10 9 -11 8 -5 -6z"/>
<path d="M426 1418 c3 -5 10 -6 15 -3 13 9 11 12 -6 12 -8 0 -12 -4 -9 -9z"/>
<path d="M4690 1426 c0 -2 8 -10 18 -17 15 -13 16 -12 3 4 -13 16 -21 21 -21
13z"/>
<path d="M324 1349 c-4 -7 -3 -9 4 -5 5 3 13 0 15 -6 4 -9 6 -10 6 -1 1 17
-16 25 -25 12z"/>
<path d="M261 1266 c-8 -10 -9 -16 -1 -21 6 -4 10 -3 9 2 -4 21 2 24 19 12 15
-13 16 -12 3 4 -16 21 -16 21 -30 3z"/>
<path d="M4850 1266 c0 -2 8 -10 18 -17 15 -13 16 -12 3 4 -13 16 -21 21 -21
13z"/>
</g>
</svg>
